# xmcd
#
# Track frame offsets: 
#        150
#        18755
#        33345
#        50610
#        67985
#        86817
#        102377
#        117360
#        131337
#        147395
#
# Disc length: 2212 seconds
#
# Revision: 4
# Processed by: cddbd v1.5.2PL0 Copyright (c) Steve Scherf et al.
# Submitted via: ExactAudioCopyFreeDBPlugin 1.0
#
DISCID=8508a20a
DTITLE=Lacy J. Dalton - Crazy Love
DYEAR=1991
DGENRE=Country
TTITLE0=Forever In My Heart
TTITLE1=Crazy Love
TTITLE2=The Loveless Cafe
TTITLE3=The Deal
TTITLE4=Walk Away
TTITLE5=Restless
TTITLE6=Lightnin' Strikes A Good Man
TTITLE7=Rainman
TTITLE8=Lay A Little Love On Me
TTITLE9=Little Boy Blue
EXTD=
EXTT0=
EXTT1=
EXTT2=
EXTT3=
EXTT4=
EXTT5=
EXTT6=
EXTT7=
EXTT8=
EXTT9=
PLAYORDER=
